<?xml version="1.0" encoding="utf-8"?>
<!-- Generator: Adobe Illustrator 25.0.0, SVG Export Plug-In . SVG Version: 6.00 Build 0)  -->
<svg version="1.1" id="Calque_1" xmlns="http://www.w3.org/2000/svg" xmlns:xlink="http://www.w3.org/1999/xlink" x="0px" y="0px"
	 viewBox="0 0 500 210" style="enable-background:new 0 0 500 210;" xml:space="preserve">
<style type="text/css">
	.st0{fill:#4B77BB;}
	.st1{fill:#4FB68F;}
	.st2{fill:#FFFFFF;}
</style>
<g>
	<g>
		<path class="st0" d="M88.46,44.36c-5.22-8.77-11.94-13.24-22.57-13.24c-11.19,0-23.5,7.65-23.5,19.96
			c0,11,10.82,16.79,19.58,20.14l10.07,3.92c19.96,7.83,34.88,18.84,34.88,42.34c0,25.55-19.77,43.83-44.95,43.83
			c-22.76,0-40.48-16.79-43.46-39.36l17.72-3.73c-0.19,15.48,12.12,26.67,27.23,26.67s25.93-12.68,25.93-27.42
			c0-15.11-12.12-21.64-24.25-26.67l-9.7-4.1c-16.04-6.9-30.59-16.04-30.59-35.63C24.86,28.31,45,14.7,66.26,14.7
			c15.67,0,28.54,7.65,36.19,21.26L88.46,44.36z"/>
		<path class="st0" d="M209.7,114.86c0,26.3-20.52,46.44-46.63,46.44s-46.63-20.14-46.63-46.44s20.52-46.44,46.63-46.44
			S209.7,88.56,209.7,114.86z M133.22,114.86c0,16.41,13.24,30.4,29.84,30.4s29.84-13.99,29.84-30.4c0-16.6-13.24-30.4-29.84-30.4
			S133.22,98.26,133.22,114.86z"/>
		<path class="st0" d="M264.72,158.32h-17.53V33.72H213.8V17.68h84.31v16.04h-33.39V158.32z"/>
		<path class="st0" d="M313.02,85.2h0.56c4.1-10.26,12.68-16.79,23.88-16.79c4.85,0,9.7,1.68,13.8,4.29L343.61,88
			c-2.98-2.61-6.34-3.54-10.26-3.54c-18.09,0-20.33,16.79-20.33,30.96v42.9h-16.79V71.03h16.79V85.2z"/>
		<path class="st0" d="M384.27,31.11c0,6.34-5.22,11.38-11.56,11.38s-11.56-5.04-11.56-11.38c0-6.53,5.22-11.75,11.56-11.75
			S384.27,24.58,384.27,31.11z M381.1,158.32h-16.79V71.03h16.79V158.32z"/>
		<path class="st0" d="M423.44,85.58h0.37c6.9-10.45,17.35-17.16,30.4-17.16c25.18,0,41.04,21.82,41.04,45.7
			c0,24.99-14.92,47.19-41.78,47.19c-12.31,0-22.94-6.71-29.66-16.6h-0.37v63.6h-16.79V71.03h16.79V85.58z M478.47,114.67
			c0-16.97-10.26-31.34-28.35-31.34c-17.35,0-27.61,15.11-27.61,31.34c0,16.41,9.89,31.71,27.61,31.71
			C468.39,146.38,478.47,131.83,478.47,114.67z"/>
	</g>
	<g>
		<path class="st1" d="M18.83,80.04c0.86-0.05,1.72-0.16,2.58-0.13c6.59,0.22,11.53,3.15,14.49,9.1c1.57,3.16,1.74,6.57,1.17,10.03
			c-0.42,2.5-1.26,4.88-2.18,7.23c-1.94,4.98-3.88,9.96-5.82,14.94c-0.49,1.25-1.61,1.53-2.63,0.66c-0.04-0.03-0.07-0.07-0.11-0.1
			c-2.89-2.51-5.78-5.01-8.66-7.53c-2.25-1.96-4.55-3.87-6.73-5.92c-1.94-1.83-3.45-4.01-4.48-6.5c-1.72-4.17-1.68-8.33,0.2-12.43
			c1.69-3.7,4.46-6.36,8.13-8.09c0.43-0.2,0.88-0.38,1.32-0.57C17.02,80.49,17.93,80.27,18.83,80.04z M26.94,118.26
			c0.08-0.18,0.13-0.3,0.18-0.42c1.68-4.31,3.37-8.61,5.05-12.92c0.89-2.29,1.7-4.6,2.01-7.06c0.46-3.62-0.17-6.99-2.45-9.92
			c-4.79-6.13-13.91-6.71-19.49-1.29c-3.77,3.66-5.21,9.37-2.71,14.59c0.93,1.94,2.16,3.66,3.72,5.1c2.18,2.01,4.46,3.92,6.71,5.87
			C22.26,114.21,24.57,116.21,26.94,118.26z"/>
		<path class="st1" d="M37.79,117.9c-0.83-0.28-1.59-0.52-2.35-0.78c-0.94-0.32-1.39-1.14-1.1-1.99c0.29-0.82,1.12-1.19,2.05-0.89
			c1.51,0.49,3.01,0.99,4.52,1.49c1.25,0.42,1.58,1.66,0.68,2.61c-3.61,3.8-7.24,7.58-10.86,11.37c-0.5,0.53-1.09,0.65-1.78,0.43
			c-4.95-1.63-9.9-3.26-14.84-4.9c-1.31-0.43-1.61-1.66-0.66-2.67c1.09-1.15,2.19-2.3,3.29-3.44c0.67-0.7,1.59-0.74,2.22-0.13
			c0.63,0.62,0.62,1.53-0.05,2.24c-0.56,0.59-1.12,1.17-1.74,1.82c1.13,0.37,2.17,0.71,3.21,1.06c2.77,0.92,5.55,1.83,8.32,2.75
			c0.23,0.08,0.42,0.16,0.66-0.09c2.73-2.89,5.48-5.75,8.23-8.63C37.65,118.09,37.69,118.02,37.79,117.9z"/>
		<path class="st1" d="M23.39,104.26c-4.55,1.14-9.2-1.77-10.25-6.4c-0.98-4.35,1.87-8.95,6.3-9.99c4.59-1.08,9.07,1.74,10.19,6.43
			C30.67,98.64,27.82,103.2,23.39,104.26z M20.11,90.86c-2.89,0.71-4.66,3.61-3.96,6.51c0.68,2.85,3.66,4.66,6.52,3.95
			c2.91-0.72,4.7-3.65,3.98-6.55C25.93,91.9,23,90.15,20.11,90.86z"/>
	</g>
	<g>
		<path class="st1" d="M94.13,1.69c7.38,0,12.86,4.63,13.95,10.85c0.45,2.58-0.03,4.98-1.02,7.33c-1.58,3.76-3.67,7.24-5.92,10.62
			c-1.45,2.17-2.98,4.29-4.51,6.41c-0.88,1.23-2.09,1.22-2.99,0.01c-3.36-4.53-6.54-9.18-9.12-14.21c-0.96-1.87-1.85-3.77-2.29-5.84
			c-0.62-2.93-0.09-5.73,1.36-8.3C86.13,4.1,90.04,1.86,94.13,1.69z M95.12,8.26c-2.66,0.02-4.9,2.27-4.9,4.92
			c0,2.67,2.28,4.94,4.95,4.92c2.66-0.02,4.9-2.27,4.9-4.92C100.06,10.51,97.78,8.24,95.12,8.26z"/>
	</g>
	<g>
		<path class="st2" d="M55.14,74.67c0.3,0.06,0.63,0.07,0.9,0.2c2.61,1.15,5.23,2.31,7.82,3.5c0.87,0.4,1.33,1.16,1.17,2.13
			c-0.15,0.91-0.73,1.55-1.66,1.65c-0.49,0.05-1.05-0.1-1.51-0.3c-2.39-1.03-4.76-2.12-7.15-3.18c-1.42-0.63-2-1.88-1.23-2.97
			c0.35-0.51,1-0.81,1.51-1.2C55.04,74.56,55.09,74.61,55.14,74.67z"/>
		<path class="st2" d="M52.74,26.5c-1.28-0.76-1.53-2.38-0.48-3.19c2.71-2.12,5.74-3.52,9.27-3.53c1.18,0,1.98,0.8,2.04,1.9
			c0.06,1.06-0.67,2.01-1.85,2.07c-2.53,0.14-4.7,1.14-6.76,2.5C54.19,26.75,53.41,26.92,52.74,26.5z"/>
		<path class="st2" d="M95.13,105.97c-1.08,0.21-1.95-0.33-2.37-1.46c-0.35-0.93-0.67-1.88-1.1-2.77c-0.52-1.08-1.28-1.97-2.39-2.54
			c-0.82-0.41-1.45-1.02-1.39-2.03c0.08-1.51,1.57-2.34,3.02-1.67c2.3,1.06,3.75,2.93,4.76,5.18c0.39,0.88,0.7,1.8,0.98,2.72
			C96.98,104.6,96.29,105.75,95.13,105.97z"/>
		<path class="st2" d="M43.89,147.12c0.8-0.76,1.82-0.77,2.79-0.04c0.79,0.6,1.57,1.23,2.41,1.75c1.02,0.64,2.14,0.98,3.38,0.86
			c0.91-0.09,1.77,0.08,2.26,0.97c0.74,1.32-0.07,2.82-1.65,3.03c-2.51,0.33-4.74-0.47-6.79-1.83c-0.8-0.53-1.55-1.14-2.28-1.78
			C43.06,149.27,43.03,147.93,43.89,147.12z"/>
		<path class="st2" d="M86.37,144.78c-0.61-0.92-0.44-1.93,0.44-2.75c0.73-0.68,1.48-1.33,2.14-2.07c0.8-0.9,1.33-1.94,1.43-3.18
			c0.07-0.91,0.39-1.73,1.34-2.06c1.43-0.5,2.76,0.55,2.7,2.15c-0.1,2.53-1.27,4.59-2.96,6.38c-0.66,0.7-1.39,1.34-2.14,1.94
			C88.35,145.97,87.03,145.76,86.37,144.78z"/>
		<path class="st2" d="M37.33,57.34c-0.83,1.24-2.46,1.4-3.21,0.31c-1.97-2.82-3.21-5.92-3.04-9.44c0.06-1.18,0.9-1.93,2-1.93
			c1.06,0,1.97,0.78,1.97,1.96c0.01,2.53,0.89,4.76,2.13,6.89C37.65,55.9,37.78,56.69,37.33,57.34z"/>
	</g>
</g>
</svg>
