<?xml version="1.0" encoding="utf-8"?>
<!-- Generator: Adobe Illustrator 25.0.0, SVG Export Plug-In . SVG Version: 6.00 Build 0)  -->
<svg version="1.1" id="Calque_1" xmlns="http://www.w3.org/2000/svg" xmlns:xlink="http://www.w3.org/1999/xlink" x="0px" y="0px"
	 viewBox="0 0 500 500" style="enable-background:new 0 0 500 500;" xml:space="preserve">
<style type="text/css">
	.st0{fill:#4B77BB;}
	.st1{fill:#4FB68F;}
	.st2{fill:#FFFFFF;}
	.st3{fill:#84C175;}
	.st4{fill:#6CC9F3;}
</style>
<g>
	<path class="st0" d="M346.34,137.21C330.48,110.59,310.09,97,277.81,97c-33.98,0-71.37,23.22-71.37,60.61
		c0,33.42,32.85,50.98,59.47,61.17l30.59,11.89c60.61,23.79,105.92,57.21,105.92,128.57c0,77.6-60.04,133.1-136.5,133.1
		c-69.1,0-122.91-50.98-131.97-119.51l53.81-11.33c-0.57,47.01,36.82,81,82.69,81s78.73-38.52,78.73-83.26
		c0-45.88-36.82-65.7-73.63-81l-29.45-12.46c-48.71-20.96-92.89-48.71-92.89-108.18c0-69.1,61.17-110.45,125.74-110.45
		c47.58,0,86.66,23.22,109.88,64.57L346.34,137.21z"/>
	<g>
		<path class="st1" d="M134.91,245.57c2.61-0.14,5.23-0.47,7.84-0.39c20,0.67,35.01,9.58,43.99,27.62c4.78,9.6,5.3,19.96,3.55,30.46
			c-1.27,7.6-3.83,14.8-6.61,21.94c-5.9,15.12-11.78,30.25-17.67,45.37c-1.48,3.8-4.9,4.64-7.99,1.99c-0.12-0.1-0.23-0.2-0.34-0.3
			c-8.77-7.62-17.54-15.22-26.29-22.85c-6.84-5.96-13.83-11.76-20.42-17.99c-5.9-5.56-10.49-12.19-13.6-19.75
			c-5.22-12.67-5.1-25.28,0.6-37.75c5.14-11.24,13.53-19.31,24.68-24.55c1.32-0.62,2.67-1.16,4.01-1.74
			C129.39,246.95,132.15,246.26,134.91,245.57z M159.51,361.64c0.23-0.55,0.4-0.91,0.54-1.28c5.11-13.08,10.23-26.16,15.33-39.25
			c2.71-6.95,5.17-13.98,6.11-21.43c1.39-11-0.51-21.24-7.45-30.13c-14.53-18.61-42.23-20.39-59.17-3.93
			c-11.45,11.13-15.83,28.47-8.22,44.3c2.82,5.88,6.56,11.11,11.31,15.48c6.63,6.11,13.56,11.91,20.36,17.83
			C145.32,349.34,152.33,355.41,159.51,361.64z"/>
		<path class="st1" d="M192.47,360.53c-2.53-0.84-4.83-1.58-7.13-2.37c-2.86-0.97-4.23-3.47-3.34-6.04c0.87-2.49,3.41-3.62,6.24-2.7
			c4.58,1.49,9.15,3,13.72,4.54c3.79,1.28,4.8,5.05,2.06,7.93c-10.97,11.53-21.98,23.02-32.98,34.53c-1.53,1.6-3.31,1.99-5.41,1.3
			c-15.02-4.96-30.05-9.91-45.07-14.87c-3.97-1.31-4.89-5.05-2-8.11c3.31-3.5,6.64-6.98,9.98-10.45c2.04-2.12,4.84-2.26,6.75-0.39
			c1.92,1.88,1.87,4.65-0.15,6.8c-1.69,1.79-3.4,3.56-5.27,5.52c3.42,1.13,6.58,2.16,9.75,3.21c8.42,2.78,16.85,5.56,25.27,8.34
			c0.71,0.23,1.28,0.48,2-0.29c8.3-8.76,16.65-17.47,24.98-26.2C192.04,361.11,192.17,360.91,192.47,360.53z"/>
		<path class="st1" d="M148.75,319.13c-13.81,3.45-27.95-5.36-31.12-19.44c-2.98-13.21,5.67-27.16,19.12-30.34
			c13.93-3.29,27.54,5.3,30.95,19.53C170.86,302.06,162.18,315.9,148.75,319.13z M138.77,278.42c-8.76,2.16-14.14,10.98-12.04,19.76
			c2.07,8.67,11.11,14.15,19.8,12.01c8.85-2.18,14.26-11.09,12.09-19.88C156.46,281.6,147.55,276.26,138.77,278.42z"/>
	</g>
	<g>
		<path class="st1" d="M363.56,7.65c22.42,0.01,39.04,14.06,42.37,32.93c1.38,7.83-0.09,15.11-3.09,22.27
			c-4.79,11.43-11.14,21.99-17.99,32.26c-4.4,6.6-9.06,13.03-13.68,19.48c-2.67,3.72-6.36,3.7-9.07,0.04
			c-10.21-13.75-19.85-27.87-27.69-43.14c-2.91-5.67-5.62-11.45-6.95-17.73c-1.89-8.91-0.28-17.4,4.13-25.21
			C339.25,14.98,351.13,8.17,363.56,7.65z M366.55,27.6c-8.07,0.06-14.87,6.88-14.87,14.94c0,8.11,6.93,15.01,15.02,14.95
			c8.08-0.06,14.87-6.88,14.87-14.94C381.57,34.42,374.65,27.54,366.55,27.6z"/>
	</g>
	<g>
		<path class="st2" d="M245.16,229.26c0.92,0.19,1.91,0.23,2.74,0.6c7.94,3.5,15.88,7,23.75,10.63c2.64,1.22,4.04,3.52,3.56,6.47
			c-0.45,2.77-2.23,4.71-5.05,5.02c-1.49,0.17-3.18-0.3-4.59-0.91c-7.27-3.14-14.47-6.44-21.71-9.65c-4.31-1.91-6.07-5.71-3.75-9.02
			c1.08-1.54,3.03-2.45,4.59-3.65C244.86,228.92,245.01,229.09,245.16,229.26z"/>
		<path class="st2" d="M237.88,82.99c-3.9-2.32-4.63-7.22-1.47-9.69c8.24-6.44,17.44-10.69,28.14-10.73
			c3.59-0.01,6.01,2.43,6.19,5.76c0.17,3.23-2.04,6.09-5.61,6.3c-7.67,0.44-14.28,3.47-20.54,7.59
			C242.28,83.74,239.91,84.26,237.88,82.99z"/>
		<path class="st2" d="M366.59,324.32c-3.29,0.65-5.92-1-7.21-4.44c-1.06-2.82-2.03-5.7-3.33-8.41c-1.58-3.29-3.89-5.99-7.26-7.7
			c-2.48-1.26-4.4-3.09-4.23-6.16c0.25-4.6,4.77-7.11,9.16-5.08c6.98,3.23,11.39,8.91,14.45,15.72c1.2,2.66,2.13,5.46,2.96,8.26
			C372.22,320.15,370.1,323.63,366.59,324.32z"/>
		<path class="st2" d="M210.99,449.26c2.43-2.31,5.53-2.33,8.46-0.11c2.41,1.82,4.76,3.73,7.31,5.33c3.09,1.94,6.5,2.98,10.26,2.62
			c2.77-0.26,5.37,0.25,6.87,2.93c2.25,4.02-0.22,8.56-5.02,9.19c-7.62,1.01-14.39-1.43-20.63-5.55c-2.43-1.61-4.72-3.47-6.92-5.39
			C208.47,455.8,208.4,451.73,210.99,449.26z"/>
		<path class="st2" d="M340.01,442.16c-1.86-2.79-1.34-5.85,1.34-8.36c2.2-2.06,4.49-4.05,6.5-6.29c2.44-2.72,4.05-5.89,4.33-9.66
			c0.21-2.77,1.17-5.25,4.07-6.27c4.34-1.53,8.39,1.68,8.2,6.52c-0.31,7.68-3.87,13.93-8.99,19.37c-2,2.12-4.23,4.06-6.5,5.9
			C346.01,445.77,341.99,445.14,340.01,442.16z"/>
		<path class="st2" d="M191.07,176.64c-2.52,3.77-7.46,4.24-9.75,0.95c-5.99-8.57-9.74-17.98-9.22-28.67
			c0.18-3.58,2.75-5.87,6.08-5.87c3.23,0,5.98,2.37,5.99,5.94c0.03,7.68,2.7,14.44,6.48,20.91
			C192.05,172.28,192.45,174.68,191.07,176.64z"/>
	</g>
</g>
</svg>
